<svg width="24" height="24" viewBox="0 0 24 24" fill="none" xmlns="http://www.w3.org/2000/svg">
<g clip-path="url(#clip0)">
<path d="M12.0003 0C7.00832 0 2.94727 4.06105 2.94727 9.05242C2.94727 16.2392 11.0289 23.4587 11.3732 23.7632C11.5532 23.9211 11.7767 24 12.0003 24C12.2327 24 12.4652 23.9147 12.6464 23.7448C12.9894 23.424 21.0534 15.8072 21.0534 9.05305C21.0534 4.06168 16.9911 0 12.0003 0ZM12.0003 13.3693C9.61611 13.3693 7.68411 11.436 7.68411 9.05368C7.68411 6.67137 9.61611 4.7381 12.0003 4.7381C14.3833 4.7381 16.3153 6.67074 16.3153 9.05368C16.3153 11.4366 14.3833 13.3693 12.0003 13.3693Z" fill="white"/>
</g>
<defs>
<clipPath id="clip0">
<rect width="24" height="24" fill="white"/>
</clipPath>
</defs>
</svg>
