<svg width="18" height="18" viewBox="0 0 18 18" fill="none" xmlns="http://www.w3.org/2000/svg">
<g clip-path="url(#clip0)">
<path d="M4.34444 9.49395L12.67 17.7965C12.9427 18.0683 13.3844 18.0679 13.6567 17.795C13.9288 17.5223 13.9281 17.0804 13.6553 16.8083L5.82532 8.99997L13.6556 1.19166C13.9283 0.919548 13.9291 0.477953 13.657 0.205141C13.5205 0.0683842 13.3416 3.86007e-06 13.1628 3.8757e-06C12.9844 3.8913e-06 12.8063 0.0679265 12.67 0.203734L4.34444 8.50603C4.21306 8.63674 4.13934 8.81463 4.13934 8.99997C4.13934 9.18531 4.21327 9.36299 4.34444 9.49395Z" fill="#fff"/>
</g>
<defs>
<clipPath id="clip0">
<rect width="18" height="18" fill="white" transform="translate(18 18) rotate(180)"/>
</clipPath>
</defs>
</svg>
